<?xml version="1.0" standalone="no"?>
<!DOCTYPE svg PUBLIC "-//W3C//DTD SVG 20010904//EN"
 "http://www.w3.org/TR/2001/REC-SVG-20010904/DTD/svg10.dtd">
<svg version="1.0" xmlns="http://www.w3.org/2000/svg"
 width="694.000000pt" height="274.000000pt" viewBox="0 0 694.000000 274.000000"
 preserveAspectRatio="xMidYMid meet">

<g transform="translate(0.000000,274.000000) scale(0.100000,-0.100000)"
fill="#fff" stroke="none">
<path d="M955 2249 c-190 -20 -389 -115 -524 -250 -350 -351 -347 -916 6
-1262 184 -180 440 -270 702 -246 107 10 180 29 280 75 243 111 405 302 488
571 24 78 27 104 27 233 0 129 -3 155 -27 233 -80 259 -234 445 -464 561 -77
38 -194 74 -265 81 -129 12 -145 12 -223 4z m242 -626 c39 -17 102 -51 140
-76 78 -52 205 -156 210 -174 5 -14 -116 -117 -210 -180 -87 -58 -194 -103
-262 -110 -72 -8 -143 10 -252 64 -75 36 -110 62 -185 134 l-93 89 86 82 c100
96 171 142 284 181 103 36 179 33 282 -10z"/>
<path d="M963 1515 c-47 -29 -83 -92 -83 -147 0 -52 40 -119 86 -145 128 -73
287 40 254 181 -18 81 -74 128 -157 133 -49 3 -65 0 -100 -22z m132 -49 c35
-15 65 -59 65 -96 0 -34 -28 -79 -61 -96 -43 -22 -91 -11 -123 27 -47 56 -29
136 38 165 39 17 40 17 81 0z"/>
<path d="M4154 1845 c-82 -18 -132 -45 -181 -97 -98 -107 -76 -285 44 -355 54
-31 120 -54 258 -89 109 -28 176 -61 201 -100 22 -32 14 -116 -12 -146 -86
-96 -353 -84 -505 23 l-26 18 -21 -51 c-20 -48 -21 -52 -4 -65 55 -45 189 -89
303 -99 136 -13 298 39 355 113 76 100 71 237 -12 315 -34 32 -138 80 -209 97
-27 6 -93 25 -146 41 -79 25 -102 36 -128 65 -58 67 -37 152 50 200 91 49 259
41 373 -20 l44 -23 21 51 c17 40 19 52 9 60 -58 40 -205 78 -301 76 -29 0 -80
-7 -113 -14z"/>
<path d="M2410 1369 l0 -481 258 5 c186 3 271 8 307 19 223 66 355 237 355
458 0 183 -97 341 -255 419 -107 52 -170 61 -432 61 l-233 0 0 -481z m470 360
c152 -24 261 -110 300 -236 58 -187 -18 -374 -180 -447 -79 -36 -166 -47 -326
-44 l-129 3 -3 355 c-1 195 0 361 3 367 6 16 240 18 335 2z"/>
<path d="M3550 1370 l0 -480 65 0 65 0 0 480 0 480 -65 0 -65 0 0 -480z"/>
<path d="M4830 1370 l0 -480 65 0 65 0 0 215 0 215 280 0 280 0 0 -215 0 -215
65 0 65 0 0 480 0 480 -65 0 -65 0 0 -210 0 -210 -280 0 -280 0 0 210 0 210
-65 0 -65 0 0 -480z"/>
<path d="M6223 1823 c-14 -38 -401 -890 -414 -914 -9 -18 -5 -19 59 -19 l68 0
51 118 51 117 263 0 262 0 51 -117 51 -118 68 0 c37 0 66 3 64 8 -2 4 -100
220 -217 480 l-214 472 -66 0 c-62 0 -66 -1 -77 -27z m184 -345 c56 -128 101
-233 99 -235 -2 -2 -96 -2 -209 -1 l-206 3 102 232 c56 128 104 233 107 233 3
0 51 -104 107 -232z"/>
</g>
</svg>
